<svg width="20" height="21" viewBox="0 0 20 21" fill="none" xmlns="http://www.w3.org/2000/svg">
<path d="M10.0004 5.5C8.48944 5.50066 7.0137 5.93015 5.76516 6.73258C4.51663 7.53501 3.55312 8.67323 3 9.99912C3.55202 11.3258 4.51515 12.4648 5.76381 13.2677C7.01247 14.0706 8.4887 14.5 10 14.5C11.5113 14.5 12.9875 14.0706 14.2362 13.2677C15.4848 12.4648 16.448 11.3258 17 9.99912C16.4469 8.67334 15.4835 7.5352 14.2351 6.73278C12.9868 5.93036 11.5112 5.50081 10.0004 5.5V5.5Z" stroke="#9F9F9F"/>
<path d="M10 13C11.6569 13 13 11.6569 13 10C13 8.34315 11.6569 7 10 7C8.34315 7 7 8.34315 7 10C7 11.6569 8.34315 13 10 13Z" stroke="#9F9F9F"/>
<path d="M10 11.5C10.8284 11.5 11.5 10.8284 11.5 10C11.5 9.17157 10.8284 8.5 10 8.5C9.17157 8.5 8.5 9.17157 8.5 10C8.5 10.8284 9.17157 11.5 10 11.5Z" fill="#9F9F9F"/>
</svg>
